<?xml version="1.0" standalone="no"?>
<!DOCTYPE svg PUBLIC "-//W3C//DTD SVG 20010904//EN"
 "http://www.w3.org/TR/2001/REC-SVG-20010904/DTD/svg10.dtd">
<svg version="1.0" xmlns="http://www.w3.org/2000/svg"
 width="8.000000pt" height="6.000000pt" viewBox="0 0 8.000000 6.000000"
 preserveAspectRatio="xMidYMid meet">

<g transform="translate(0.000000,6.000000) scale(0.100000,-0.100000)"
fill="#000000" stroke="none">
<path d="M5 51 c-3 -5 0 -13 6 -17 8 -4 9 -3 5 4 -5 8 3 12 24 12 21 0 29 -4
24 -12 -4 -7 -3 -8 5 -4 18 12 2 26 -29 26 -16 0 -31 -4 -35 -9z"/>
<path d="M25 20 c-4 -6 -11 -7 -17 -4 -7 4 -8 2 -4 -4 9 -15 63 -15 72 0 4 6
3 8 -4 4 -6 -3 -13 -2 -17 4 -3 5 -10 10 -15 10 -5 0 -12 -5 -15 -10z"/>
</g>
</svg>
