<svg version="1.1" id="Layer_1" xmlns="http://www.w3.org/2000/svg" xmlns:xlink="http://www.w3.org/1999/xlink" x="0px" y="0px"
	 width="100%" viewBox="0 0 80 60" enable-background="new 0 0 80 60" xml:space="preserve">
<path fill="#D6C9B4" opacity="1.000000" stroke="none" 
	d="
M1.000000,41.000000 
	C1.000000,34.645603 1.000000,28.291204 1.455500,21.468403 
	C4.956520,20.987232 8.002040,20.974463 11.027433,21.424244 
	C11.007307,24.816214 11.007307,27.745634 11.007307,30.699427 
	C14.609929,30.699427 17.661324,30.699427 20.677711,30.699427 
	C20.677711,27.337683 20.677711,24.284410 20.677711,21.047775 
	C17.225225,21.047775 14.093346,21.047775 10.976046,20.591084 
	C10.998344,17.091608 11.006063,14.048824 11.006826,11.002670 
	C10.999870,10.999302 11.006061,11.013760 11.474312,11.008525 
	C31.626348,11.006775 51.310135,11.010261 70.997025,11.006527 
	C71.000137,10.999310 70.986229,11.006044 70.991508,11.461268 
	C71.010620,14.960179 71.024452,18.003866 70.575737,21.027430 
	C67.183769,21.007305 64.254349,21.007305 61.300579,21.007305 
	C61.300579,24.611092 61.300579,27.662325 61.300579,30.677708 
	C64.662331,30.677708 67.715599,30.677708 70.952209,30.677708 
	C70.952209,27.225218 70.952209,24.093338 71.409119,20.976044 
	C74.910683,20.993752 77.955345,20.996876 81.000000,21.000000 
	C81.000000,27.354399 81.000000,33.708797 80.543549,40.531597 
	C77.178528,41.000000 74.269958,41.000000 71.243446,41.000000 
	C71.067093,44.862309 70.931374,47.834663 70.356033,50.870148 
	C67.154785,50.933285 64.393166,50.933285 61.385384,50.933285 
	C61.097660,47.355522 60.854130,44.327339 60.572433,40.824554 
	C57.114223,40.824554 54.149727,40.824554 51.124146,40.383507 
	C51.063065,37.173946 51.063065,34.405426 51.063065,31.456823 
	C44.014641,31.456823 37.683540,31.456823 30.814951,31.456823 
	C30.814951,34.882374 30.814951,37.853378 30.373386,40.881783 
	C27.168558,40.939182 24.405294,40.939182 21.402004,40.939182 
	C21.102571,44.627953 20.856541,47.658852 20.600965,50.807316 
	C17.128202,50.807316 14.166432,50.807316 11.137352,50.368332 
	C11.070040,47.155319 11.070040,44.381290 11.070040,41.000000 
	C7.227841,41.000000 4.113921,41.000000 1.000000,41.000000 
z"/>
<path fill="#8C7973" opacity="1.000000" stroke="none" 
	d="
M51.185230,40.824554 
	C54.149727,40.824554 57.114223,40.824554 60.572433,40.824554 
	C60.854130,44.327339 61.097660,47.355522 61.385384,50.933285 
	C64.393166,50.933285 67.154785,50.933285 70.442078,50.953094 
	C70.967751,50.972904 71.139320,51.139336 71.084305,51.581470 
	C71.019531,55.015736 71.009766,58.007870 71.000000,61.000000 
	C51.312439,61.000000 31.624876,61.000000 11.468657,60.549412 
	C10.953648,57.112415 10.907295,54.126011 10.946732,51.056385 
	C11.032522,50.973167 11.204663,50.807316 11.204663,50.807316 
	C14.166432,50.807316 17.128202,50.807316 20.600965,50.807316 
	C20.856541,47.658852 21.102571,44.627953 21.402004,40.939182 
	C24.405294,40.939182 27.168558,40.939182 30.457943,40.963722 
	C30.984062,40.988266 31.152670,41.152672 31.098118,41.596939 
	C31.043568,44.922112 31.043568,47.803013 31.043568,50.696144 
	C38.057518,50.696144 44.249977,50.696144 50.847580,50.696144 
	C50.847580,47.322449 50.847580,44.237682 50.931862,41.070690 
	C51.016140,40.988464 51.185230,40.824554 51.185230,40.824554 
z"/>
<path fill="#6D5047" opacity="1.000000" stroke="none" 
	d="
M70.993919,11.013745 
	C51.310135,11.010261 31.626348,11.006775 11.472334,10.553358 
	C11.001404,7.068951 11.000702,4.034476 11.000000,1.000000 
	C30.687561,1.000000 50.375122,1.000000 70.531342,1.454430 
	C70.997971,4.943822 70.995949,7.978784 70.993919,11.013745 
z"/>
<path fill="#000000" opacity="1.000000" stroke="none" 
	d="
M10.513435,1.000000 
	C11.000702,4.034476 11.001404,7.068951 11.004084,10.558594 
	C11.006061,11.013760 10.999870,10.999302 10.551659,11.000701 
	C7.068964,11.001400 4.034482,11.000700 1.000000,11.000000 
	C1.000000,7.747543 1.000000,4.495087 1.000000,1.000000 
	C4.006597,1.000000 7.016734,1.000000 10.513435,1.000000 
z"/>
<path fill="#000000" opacity="1.000000" stroke="none" 
	d="
M70.997025,11.006527 
	C70.995949,7.978784 70.997971,4.943822 71.000000,1.454430 
	C74.252457,1.000000 77.504913,1.000000 81.000000,1.000000 
	C81.000000,4.006597 81.000000,7.016734 80.545570,10.513435 
	C77.056168,11.002014 74.021202,11.004029 70.986229,11.006044 
	C70.986229,11.006044 71.000137,10.999310 70.997025,11.006527 
z"/>
<path fill="#6D5047" opacity="1.000000" stroke="none" 
	d="
M1.000000,11.454110 
	C4.034482,11.000700 7.068964,11.001400 10.558615,11.004070 
	C11.006063,14.048824 10.998344,17.091608 10.981523,20.553514 
	C10.972419,20.972635 11.047560,20.961693 11.047560,20.961693 
	C8.002040,20.974463 4.956520,20.987232 1.455500,21.000000 
	C1.000000,17.969406 1.000000,14.938813 1.000000,11.454110 
z"/>
<path fill="#6D5047" opacity="1.000000" stroke="none" 
	d="
M70.991508,11.461268 
	C74.021202,11.004029 77.056168,11.002014 80.545570,11.000000 
	C81.000000,14.030593 81.000000,17.061186 81.000000,20.545891 
	C77.955345,20.996876 74.910683,20.993752 71.446686,20.981522 
	C71.027344,20.972414 71.038284,21.047554 71.038284,21.047554 
	C71.024452,18.003866 71.010620,14.960179 70.991508,11.461268 
z"/>
<path fill="#8C7973" opacity="1.000000" stroke="none" 
	d="
M1.000000,41.454109 
	C4.113921,41.000000 7.227841,41.000000 11.070040,41.000000 
	C11.070040,44.381290 11.070040,47.155319 11.137352,50.368332 
	C11.204663,50.807316 11.032522,50.973167 10.504683,51.001259 
	C6.984562,51.019566 3.992281,51.009781 1.000000,51.000000 
	C1.000000,47.969406 1.000000,44.938812 1.000000,41.454109 
z"/>
<path fill="#8C7973" opacity="1.000000" stroke="none" 
	d="
M70.881699,50.889961 
	C70.931374,47.834663 71.067093,44.862309 71.243446,41.000000 
	C74.269958,41.000000 77.178528,41.000000 80.543549,41.000000 
	C81.000000,44.030594 81.000000,47.061188 80.549400,50.545891 
	C77.112305,51.046448 74.125816,51.092892 71.139320,51.139336 
	C71.139320,51.139336 70.967751,50.972904 70.881699,50.889961 
z"/>
<path fill="#000000" opacity="1.000000" stroke="none" 
	d="
M1.000000,51.486565 
	C3.992281,51.009781 6.984562,51.019566 10.418892,51.084473 
	C10.907295,54.126011 10.953648,57.112415 11.000000,60.549412 
	C7.747543,61.000000 4.495087,61.000000 1.000000,61.000000 
	C1.000000,57.993404 1.000000,54.983265 1.000000,51.486565 
z"/>
<path fill="#000000" opacity="1.000000" stroke="none" 
	d="
M71.084305,51.581474 
	C74.125816,51.092892 77.112305,51.046448 80.549400,51.000000 
	C81.000000,54.252457 81.000000,57.504913 81.000000,61.000000 
	C77.993401,61.000000 74.983269,61.000000 71.486565,61.000000 
	C71.009766,58.007870 71.019531,55.015736 71.084305,51.581474 
z"/>
<path fill="#8C7973" opacity="1.000000" stroke="none" 
	d="
M30.899506,40.906322 
	C30.814951,37.853378 30.814951,34.882374 30.814951,31.456823 
	C37.683540,31.456823 44.014641,31.456823 51.063065,31.456823 
	C51.063065,34.405426 51.063065,37.173946 51.124146,40.383507 
	C51.185230,40.824554 51.016140,40.988464 50.476589,41.015709 
	C43.675583,41.079525 37.414127,41.116096 31.152670,41.152672 
	C31.152670,41.152672 30.984062,40.988266 30.899506,40.906322 
z"/>
<path fill="#1A1C2C" opacity="1.000000" stroke="none" 
	d="
M10.966942,21.010204 
	C14.093346,21.047775 17.225225,21.047775 20.677711,21.047775 
	C20.677711,24.284410 20.677711,27.337683 20.677711,30.699427 
	C17.661324,30.699427 14.609929,30.699427 11.007307,30.699427 
	C11.007307,27.745634 11.007307,24.816214 11.027433,21.424244 
	C11.047560,20.961693 10.972419,20.972635 10.966942,21.010204 
z"/>
<path fill="#1A1C2C" opacity="1.000000" stroke="none" 
	d="
M70.989777,20.966936 
	C70.952209,24.093338 70.952209,27.225218 70.952209,30.677708 
	C67.715599,30.677708 64.662331,30.677708 61.300579,30.677708 
	C61.300579,27.662325 61.300579,24.611092 61.300579,21.007305 
	C64.254349,21.007305 67.183769,21.007305 70.575737,21.027430 
	C71.038284,21.047554 71.027344,20.972414 70.989777,20.966936 
z"/>
<path fill="#1A1C2C" opacity="1.000000" stroke="none" 
	d="
M31.098118,41.596939 
	C37.414127,41.116096 43.675583,41.079525 50.392311,41.097935 
	C50.847580,44.237682 50.847580,47.322449 50.847580,50.696144 
	C44.249977,50.696144 38.057518,50.696144 31.043568,50.696144 
	C31.043568,47.803013 31.043568,44.922112 31.098118,41.596939 
z"/>
</svg>